<?xml version="1.0" encoding="UTF-8"?>
<svg version="1.1" xmlns="http://www.w3.org/2000/svg" width="36" height="39">
<path d="M0 0 C3 1.625 3 1.625 5 4 C5.8125 7.25 5.8125 7.25 6 10 C6.78375 10.103125 7.5675 10.20625 8.375 10.3125 C11 11 11 11 13 14 C13.98955623 19.11165671 14.18269437 24.12722224 14.1875 29.3125 C14.19974609 30.02728516 14.21199219 30.74207031 14.22460938 31.47851562 C14.2298177 33.32052524 14.12280544 35.16208123 14 37 C11.09558341 39.90441659 8.93242155 39.25867736 4.875 39.265625 C4.1722998 39.26753845 3.46959961 39.2694519 2.74560547 39.27142334 C1.25943646 39.27278475 -0.22674445 39.26909132 -1.71289062 39.26074219 C-3.99115646 39.25004154 -6.26863377 39.26063839 -8.546875 39.2734375 C-9.98958508 39.2721159 -11.43229466 39.26955349 -12.875 39.265625 C-14.19242188 39.26336914 -15.50984375 39.26111328 -16.8671875 39.25878906 C-20 39 -20 39 -22 37 C-22.6759307 29.0478741 -22.96337067 19.52727845 -20 12 C-17 10 -17 10 -14 10 C-13.9175 9.0925 -13.835 8.185 -13.75 7.25 C-12.00074533 -0.33010358 -6.97573328 -1.21857729 0 0 Z M-7.3125 3.5625 C-9.574475 5.1888038 -9.574475 5.1888038 -10 10 C-6.04 10 -2.08 10 2 10 C1.67 8.35 1.34 6.7 1 5 C-3.04995792 3.26964156 -3.04995792 3.26964156 -7.3125 3.5625 Z M-16 14 C-17.44120215 18.64846759 -18.36384315 22.93443035 -18.75 27.8125 C-18.84796875 28.93269531 -18.9459375 30.05289062 -19.046875 31.20703125 C-19.32129031 34.14213727 -19.32129031 34.14213727 -17 36 C-12.68442601 36.45906021 -8.33715845 36.32401051 -4 36.3125 C-2.78570313 36.32861328 -1.57140625 36.34472656 -0.3203125 36.36132812 C1.41605469 36.36229492 1.41605469 36.36229492 3.1875 36.36328125 C4.25355469 36.36626221 5.31960937 36.36924316 6.41796875 36.37231445 C7.69607422 36.1880188 7.69607422 36.1880188 9 36 C11.14988373 32.7751744 11.22404896 32.39478352 10.79296875 28.8046875 C10.70080078 28.00675781 10.60863281 27.20882813 10.51367188 26.38671875 C10.40603516 25.55785156 10.29839844 24.72898437 10.1875 23.875 C10.09146484 23.03839844 9.99542969 22.20179687 9.89648438 21.33984375 C9.75171563 17.34144338 9.75171563 17.34144338 8 14 C6.21928754 13.91273777 4.4351686 13.89300959 2.65234375 13.90234375 C1.57275391 13.90556641 0.49316406 13.90878906 -0.61914062 13.91210938 C-2.32360352 13.92467773 -2.32360352 13.92467773 -4.0625 13.9375 C-5.20267578 13.94201172 -6.34285156 13.94652344 -7.51757812 13.95117188 C-10.34510351 13.96300253 -13.1725264 13.9794859 -16 14 Z " fill="#313131" transform="translate(22,0)"/>
<path d="M0 0 C0.99 0 1.98 0 3 0 C3 0.99 3 1.98 3 3 C2.01 3 1.02 3 0 3 C0 2.01 0 1.02 0 0 Z " fill="#313131" transform="translate(25,17)"/>
<path d="M0 0 C0.99 0 1.98 0 3 0 C3 0.99 3 1.98 3 3 C2.01 3 1.02 3 0 3 C0 2.01 0 1.02 0 0 Z " fill="#313131" transform="translate(8,17)"/>
</svg>
