<?xml version="1.0" encoding="UTF-8"?>
<svg version="1.1" xmlns="http://www.w3.org/2000/svg" width="22" height="22">
<path d="M0 0 C3.81684226 1.55500981 6.19195732 4.03595495 9 7 C11.88080957 5.82633684 13.34257199 4.64907259 15.5625 2.375 C18 0 18 0 21 0 C20.67566492 5.35152885 17.50295176 8.28280043 14 12 C14.5053125 12.47050781 15.010625 12.94101563 15.53125 13.42578125 C16.1809375 14.04839844 16.830625 14.67101563 17.5 15.3125 C18.1496875 15.92738281 18.799375 16.54226562 19.46875 17.17578125 C21 19 21 19 21 22 C17.60807637 21.40716379 15.7892243 20.23256811 13.25 17.9375 C12.63640625 17.38964844 12.0228125 16.84179688 11.390625 16.27734375 C10.93171875 15.85582031 10.4728125 15.43429687 10 15 C9.31164062 15.77537109 9.31164062 15.77537109 8.609375 16.56640625 C7.99578125 17.22511719 7.3821875 17.88382813 6.75 18.5625 C5.84507812 19.55443359 5.84507812 19.55443359 4.921875 20.56640625 C3 22 3 22 0.765625 21.71484375 C0.18296875 21.47894531 -0.3996875 21.24304688 -1 21 C0.55500981 17.18315774 3.03595495 14.80804268 6 12 C4.44499019 8.18315774 1.96404505 5.80804268 -1 3 C-0.67 2.01 -0.34 1.02 0 0 Z " fill="#636363" transform="translate(1,0)"/>
</svg>
