<?xml version="1.0" encoding="UTF-8"?>
<svg version="1.1" xmlns="http://www.w3.org/2000/svg" width="74" height="54">
<path d="M0 0 C1.27685165 0.00222061 2.55370331 0.00444122 3.86924744 0.00672913 C4.57165054 0.0065831 5.27405365 0.00643707 5.9977417 0.00628662 C8.32985983 0.00698579 10.66189904 0.01477835 12.9940033 0.02259827 C14.60683142 0.02446243 16.21966012 0.02588634 17.83248901 0.02688599 C22.08550062 0.03071129 26.33847828 0.04054167 30.59147644 0.05158997 C34.92812135 0.06180383 39.26477171 0.06638355 43.60142517 0.07142639 C52.11641474 0.08216393 60.63137667 0.09924049 69.14634705 0.12025452 C69.52853472 1.77640109 69.86029806 3.44482476 70.14634705 5.12025452 C69.14634705 6.12025452 69.14634705 6.12025452 66.29269409 6.24050903 C65.01584244 6.23828842 63.73899078 6.23606781 62.42344666 6.23377991 C61.72104355 6.23392593 61.01864044 6.23407196 60.29495239 6.23422241 C57.96283426 6.23352324 55.63079505 6.22573069 53.2986908 6.21791077 C51.68586267 6.2160466 50.07303397 6.21462269 48.46020508 6.21362305 C44.20719347 6.20979775 39.95421581 6.19996737 35.70121765 6.18891907 C31.36457275 6.1787052 27.02792238 6.17412548 22.69126892 6.16908264 C14.17627936 6.1583451 5.66131742 6.14126855 -2.85365295 6.12025452 C-3.23584062 4.46410794 -3.56760397 2.79568427 -3.85365295 1.12025452 C-2.85365295 0.12025452 -2.85365295 0.12025452 0 0 Z " fill="#303030" transform="translate(3.8536529541015625,-0.1202545166015625)"/>
<path d="M0 0 C1.02814316 0.00222061 2.05628632 0.00444122 3.11558533 0.00672913 C4.85727745 0.00684242 4.85727745 0.00684242 6.63415527 0.00695801 C8.52943214 0.01469994 8.52943214 0.01469994 10.46299744 0.02259827 C12.39193092 0.02472069 12.39193092 0.02472069 14.35983276 0.02688599 C17.78427561 0.03071034 21.20867628 0.0405399 24.63310242 0.05158997 C28.12522308 0.06180587 31.61735053 0.06638399 35.10948181 0.07142639 C41.96561897 0.08216225 48.82172806 0.09923767 55.67784119 0.12025452 C56.06002886 1.77640109 56.3917922 3.44482476 56.67784119 5.12025452 C55.67784119 6.12025452 55.67784119 6.12025452 53.35568237 6.24050903 C52.32753922 6.23828842 51.29939606 6.23606781 50.24009705 6.23377991 C48.49840492 6.23366661 48.49840492 6.23366661 46.7215271 6.23355103 C44.82625023 6.2258091 44.82625023 6.2258091 42.89268494 6.21791077 C41.60672928 6.21649582 40.32077362 6.21508087 38.99584961 6.21362305 C35.57140676 6.2097987 32.1470061 6.19996914 28.72257996 6.18891907 C25.2304593 6.17870316 21.73833184 6.17412504 18.24620056 6.16908264 C11.3900634 6.15834678 4.53395432 6.14127136 -2.32215881 6.12025452 C-2.70434648 4.46410794 -3.03610983 2.79568427 -3.32215881 1.12025452 C-2.32215881 0.12025452 -2.32215881 0.12025452 0 0 Z " fill="#303030" transform="translate(17.322158813476563,23.879745483398438)"/>
<path d="M0 0 C1.60279192 0.00015914 3.20558896 0.00585476 4.80834961 0.01586914 C5.65038437 0.01728409 6.49241913 0.01869904 7.35997009 0.02015686 C10.06024671 0.02577276 12.76044163 0.03832791 15.46069336 0.05102539 C17.28686404 0.05603834 19.11303602 0.06060161 20.93920898 0.06469727 C25.42556878 0.07574735 29.9118672 0.0930226 34.39819336 0.11352539 C34.78038103 1.76967196 35.11214438 3.43809563 35.39819336 5.11352539 C34.39819336 6.11352539 34.39819336 6.11352539 30.79638672 6.22705078 C29.19359479 6.22689164 27.59079776 6.22119602 25.98803711 6.21118164 C25.14600235 6.20976669 24.30396759 6.20835175 23.43641663 6.20689392 C20.73614001 6.20127802 18.03594508 6.18872287 15.33569336 6.17602539 C13.50952268 6.17101244 11.6833507 6.16644918 9.85717773 6.16235352 C5.37081794 6.15130343 0.88451952 6.13402818 -3.60180664 6.11352539 C-3.98399431 4.45737882 -4.31575766 2.78895515 -4.60180664 1.11352539 C-3.60180664 0.11352539 -3.60180664 0.11352539 0 0 Z " fill="#303030" transform="translate(38.601806640625,47.886474609375)"/>
</svg>
