<?xml version="1.0" encoding="UTF-8"?>
<svg version="1.1" xmlns="http://www.w3.org/2000/svg" width="33" height="39">
<path d="M0 0 C2.4375 2.0625 2.4375 2.0625 4.4375 4.0625 C4.5625 7.1875 4.5625 7.1875 4.4375 10.0625 C3.1175 9.7325 1.7975 9.4025 0.4375 9.0625 C0.34339844 8.43988281 0.24929687 7.81726562 0.15234375 7.17578125 C-0.44113477 4.62239068 -0.44113477 4.62239068 -4 3.25 C-9.55313724 1.40895991 -15.40422434 1.75297107 -20.8046875 3.9921875 C-22.72395743 4.93416602 -22.72395743 4.93416602 -23.4375 7 C-23.78988107 9.37578252 -23.78988107 9.37578252 -21.5625 12.0625 C-18.71900194 12.65237091 -18.71900194 12.65237091 -15.4375 12.75 C-13.69533203 12.84667969 -13.69533203 12.84667969 -11.91796875 12.9453125 C-8.12415086 13.07780905 -4.35771641 13.13691601 -0.5625 13.0625 C-0.8925 14.3825 -1.2225 15.7025 -1.5625 17.0625 C-4.79149426 17.1500127 -8.02018116 17.20306146 -11.25 17.25 C-12.61801758 17.28770508 -12.61801758 17.28770508 -14.01367188 17.32617188 C-19.03452952 17.38094487 -22.48483294 17.3595139 -26.5625 14.0625 C-28.12200551 12.50299449 -27.84446698 10.97372869 -27.9375 8.8125 C-27.88034606 5.21751729 -27.66673356 4.21559304 -25.5625 1.125 C-18.41208532 -3.79091009 -7.54682679 -4.9266571 0 0 Z " fill="#313131" transform="translate(28.5625,21.9375)"/>
<path d="M0 0 C3.5060303 0.86943897 4.94966563 2.56083702 6.9375 5.48046875 C7.62901325 9.78321784 7.45307405 11.68992187 5.0625 15.35546875 C2.5903747 17.82759405 1.6337282 18.38552854 -1.8125 18.85546875 C-6.33778174 18.33332086 -8.08293395 16.8856871 -11.0625 13.48046875 C-11.87394575 10.62602127 -11.81858333 8.34319649 -11.0625 5.48046875 C-8.05360973 0.96713335 -5.26110022 -0.36867558 0 0 Z M-7.0625 6.48046875 C-6.7325 8.79046875 -6.4025 11.10046875 -6.0625 13.48046875 C-1.99170792 14.63130015 -1.99170792 14.63130015 1.8125 13.35546875 C3.33213316 10.82274682 3.44569361 9.38443225 2.9375 6.48046875 C-1.1364053 2.5423603 -2.87105124 3.12730974 -7.0625 6.48046875 Z " fill="#313131" transform="translate(19.0625,-0.48046875)"/>
</svg>
