<?xml version="1.0" encoding="UTF-8"?>
<svg version="1.1" xmlns="http://www.w3.org/2000/svg" width="39" height="39">
<path d="M0 0 C4.88006234 2.62528299 8.1174457 6.04374335 9.86328125 11.28125 C9.98208479 13.0909318 10.03847775 14.90521447 10.05078125 16.71875 C10.06496094 17.66621094 10.07914063 18.61367188 10.09375 19.58984375 C9.85753758 22.34832439 9.18890783 23.89301798 7.86328125 26.28125 C7.97013888 29.59383668 9.03043934 30.44840809 11.42578125 32.84375 C12.23015625 33.648125 13.03453125 34.4525 13.86328125 35.28125 C13.86328125 36.27125 13.86328125 37.26125 13.86328125 38.28125 C9.61505751 37.80922514 7.66338416 35.31469482 4.86328125 32.28125 C3.93515625 32.61125 3.00703125 32.94125 2.05078125 33.28125 C-4.14975587 35.01689731 -11.23567943 35.69508164 -17.07421875 32.59375 C-21.04279612 29.59706913 -23.55579435 27.0240232 -25.13671875 22.28125 C-25.8343808 15.098762 -25.53208079 10.10213486 -21.13671875 4.28125 C-15.27572572 -1.15088988 -7.68714031 -2.58580223 0 0 Z M-19.01171875 8.03125 C-21.43826912 11.74244469 -22.13671875 13.85710556 -22.13671875 18.28125 C-20.47068847 23.96535332 -18.08958279 27.0428389 -13.13671875 30.28125 C-8.95025644 31.49912995 -6.70051307 31.44650006 -2.51171875 30.21875 C2.51248035 27.33448755 5.23245356 24.44972019 6.86328125 18.84375 C6.86328125 13.00817507 5.11752896 9.59250897 1.11328125 5.40625 C-6.38770539 0.50175874 -12.6864074 1.98095218 -19.01171875 8.03125 Z " fill="#313131" transform="translate(25.13671875,0.71875)"/>
</svg>
